<svg width="48" height="48" viewBox="0 0 48 48" fill="none" xmlns="http://www.w3.org/2000/svg">
<path d="M14.8305 32.5021C14.8305 34.6707 14.8554 36.7604 14.8142 38.8489C14.8028 39.4203 15.1876 39.4899 15.5261 39.6751C17.3489 40.672 18.2463 42.7271 17.7116 44.6828C17.1678 46.6715 15.3881 48.01 13.3373 47.9724C11.3822 47.9365 9.63501 46.5583 9.15931 44.6763C8.65974 42.7003 9.47368 40.679 11.2775 39.7443C11.8944 39.4245 12.0311 39.0669 12.02 38.451C11.9884 36.7086 12.009 34.9652 12.009 33.22C8.93541 33.3513 6.72454 34.9922 5.78118 37.7982C4.78958 40.7482 3.80502 43.7005 2.8109 46.6495C2.45834 47.6952 1.77005 48.1606 0.96993 47.9203C0.109503 47.6616 -0.212403 46.8532 0.141668 45.7814C1.14784 42.7377 2.11557 39.6799 3.18734 36.6592C4.31263 33.4874 6.54486 31.4691 9.86067 30.7123C12.5666 30.0948 15.2778 29.5012 18.0463 28.8837C18.0463 27.7778 18.0357 26.7206 18.0523 25.6638C18.0578 25.3107 17.8221 25.1879 17.5877 25.0318C13.765 22.486 11.9567 18.8877 12.0143 14.3358C12.0399 12.309 11.8813 10.2787 12.1062 8.25537C12.2447 7.01141 12.7732 5.93059 13.5411 4.95677C18.7607 -1.66123 29.261 -1.6512 34.4823 4.98058C35.2279 5.92733 35.8029 6.98359 35.869 8.19723C36.0381 11.3099 36.2705 14.4398 35.6589 17.5244C35.0352 20.6689 33.2746 23.1175 30.6119 24.8897C30.0925 25.2355 29.8646 25.5801 29.9556 26.1687C29.9744 26.2908 29.9586 26.4181 29.9586 26.5429C29.9578 28.9133 29.9596 28.905 32.3235 29.4165C34.2765 29.839 36.2278 30.2718 38.1746 30.7218C41.4917 31.4887 43.7038 33.5258 44.8233 36.6963C45.8905 39.719 46.8603 42.776 47.8649 45.8203C48.2019 46.8414 47.8969 47.6218 47.0776 47.9037C46.279 48.1786 45.546 47.721 45.2017 46.7001C44.2574 43.8979 43.2572 41.1121 42.4041 38.2823C41.4472 35.109 39.3039 33.519 36.0399 33.1767C36.0399 34.2034 36.0399 35.221 36.0399 36.2633C39.2665 37.3862 40.675 39.7097 40.5199 43.076C40.4696 44.1663 40.5275 45.2612 40.5073 46.3533C40.4875 47.4336 39.9598 47.9463 38.8847 47.9729C38.5093 47.9822 38.1336 47.9724 37.7579 47.9746C36.9319 47.9796 36.3517 47.6223 36.212 46.7873C36.071 45.9446 36.5168 45.4288 37.3056 45.1815C37.4197 45.1457 37.5386 45.1261 37.6876 45.0913C37.6876 44.0443 37.7243 43.0138 37.6795 41.9869C37.6021 40.2124 36.2479 38.9474 34.5102 38.9685C32.8105 38.9893 31.5354 40.248 31.4786 42.0039C31.4465 43.0008 31.4729 43.9997 31.4729 44.9958C31.6176 45.2614 31.9164 45.1827 32.1285 45.2965C32.7213 45.6143 33.0196 46.0969 32.9301 46.7447C32.8351 47.4343 32.3936 47.8842 31.6917 47.9538C31.103 48.0122 30.4978 48.019 29.9108 47.9523C29.1303 47.8636 28.6559 47.3832 28.6516 46.5791C28.6425 44.8003 28.5463 43.0098 28.7129 41.2454C28.9619 38.6083 30.7117 37.1406 33.1236 36.2648C33.1236 35.0469 33.1236 33.8089 33.1236 32.4938C31.9807 32.2284 30.8311 31.9778 29.6907 31.6896C29.1909 31.5633 29.0444 31.8788 28.8471 32.2096C27.7296 34.0836 26.6033 35.9523 25.475 37.8197C24.557 39.3391 23.4388 39.3356 22.5178 37.8112C21.3892 35.9438 20.2486 34.0831 19.1525 32.1968C18.8864 31.7387 18.6315 31.5979 18.1121 31.7375C17.0582 32.0209 15.9862 32.2374 14.8305 32.5021ZM14.8727 14.6726C14.6579 19.7836 18.8612 24.0858 24.0012 24.0813C29.1529 24.0768 33.3912 19.7292 33.1098 14.6614C31.9234 14.3241 31.0333 13.5029 30.2079 12.6022C29.9058 12.2727 29.6532 12.1577 29.1693 12.3358C25.726 13.6023 22.2615 13.5725 18.8162 12.3371C18.3853 12.1825 18.1398 12.2343 17.8493 12.5551C17.0087 13.4836 16.0882 14.315 14.8727 14.6726ZM15.0838 11.4798C15.6082 10.9059 16.1402 10.3388 16.6549 9.75669C17.2964 9.03147 17.9769 8.90091 18.9019 9.3184C22.3017 10.8531 25.7401 10.8648 29.1366 9.29961C30.0229 8.89113 30.6604 9.0465 31.311 9.71033C31.8772 10.2882 32.3878 10.9443 33.0555 11.3568C33.7895 8.07995 32.2081 5.9346 29.6289 4.39393C26.2817 2.39493 22.7673 2.24607 19.2434 3.92181C15.7397 5.58827 14.5983 7.59781 15.0838 11.4798ZM24.0017 34.7955C24.8131 33.4436 25.4376 32.1788 26.2713 31.0709C27.3185 29.6799 27.1567 28.1728 27.0767 26.5351C25.0043 27.0075 22.9709 26.9859 20.8356 26.5281C20.9847 27.7152 20.5451 28.8456 21.0304 29.7951C21.8883 31.4736 22.9493 33.0494 24.0017 34.7955ZM13.4552 45.1594C14.3452 45.1474 15.0295 44.4397 15.0207 43.5401C15.0119 42.6462 14.3151 41.9653 13.4124 41.9691C12.5457 41.9726 11.7994 42.7261 11.8192 43.5774C11.8391 44.4337 12.6015 45.171 13.4552 45.1594Z" fill="#03A9F4"/>
</svg>
