<svg width="48" height="48" viewBox="0 0 48 48" fill="none" xmlns="http://www.w3.org/2000/svg">
<path d="M18 20C12.486 20 8 15.514 8 10C8 4.486 12.486 0 18 0C23.514 0 28 4.486 28 10C28 15.514 23.514 20 18 20ZM18 3C14.14 3 11 6.14 11 10C11 13.86 14.14 17 18 17C21.86 17 25 13.86 25 10C25 6.14 21.86 3 18 3Z" fill="#972FFF"/>
<path d="M13 42H1.5C0.672 42 0 41.328 0 40.5V33.5C0 28.262 4.262 24 9.5 24H26.5C29.09 24 31.588 25.068 33.35 26.93C33.92 27.532 33.892 28.48 33.292 29.052C32.69 29.618 31.74 29.594 31.17 28.994C29.972 27.728 28.27 27.002 26.5 27.002H9.5C5.916 27.002 3 29.918 3 33.502V39.002H13C13.828 39.002 14.5 39.674 14.5 40.502C14.5 41.33 13.828 42 13 42Z" fill="#972FFF"/>
<path d="M29 48C28.462 48 27.966 47.712 27.698 47.244L24.13 41H19.5C18.672 41 18 40.328 18 39.5C18 38.672 18.672 38 19.5 38H25C25.538 38 26.036 38.29 26.302 38.756L28.858 43.228L33.638 32.87C33.876 32.356 34.384 32.018 34.95 31.998C35.536 32.024 36.046 32.284 36.316 32.78L41.89 42.998H46.5C47.328 42.998 48 43.67 48 44.498C48 45.326 47.328 46 46.5 46H41C40.452 46 39.946 45.7 39.684 45.218L35.112 36.838L30.362 47.13C30.126 47.64 29.626 47.976 29.066 48C29.042 48 29.022 48 29 48Z" fill="#972FFF"/>
</svg>
