<svg width="49" height="48" viewBox="0 0 49 48" fill="none" xmlns="http://www.w3.org/2000/svg">
<path d="M9.85417 3.75321C10.0009 0.792111 10.4231 -0.00349776 11.7791 1.15438e-05C13.1313 0.00377151 13.5432 0.785594 13.6909 3.68378C16.4263 3.68378 19.1659 3.68378 22.0265 3.68378C22.0265 3.08043 22.0069 2.43823 22.0312 1.79753C22.0651 0.901652 22.9485 0.0641813 23.8862 0.00502447C24.8002 -0.0526284 25.6217 0.55022 25.8093 1.4476C25.8725 1.75015 25.876 2.06724 25.8848 2.37857C25.8969 2.80971 25.8878 3.24161 25.8878 3.70935C28.7574 3.70935 31.5655 3.70935 34.4506 3.70935C34.4506 3.08945 34.4318 2.5034 34.4546 1.91885C34.499 0.789855 35.2939 -0.00425011 36.3434 0.00326983C37.3909 0.0107898 38.1743 0.813919 38.2119 1.94191C38.2307 2.50189 38.2151 3.06288 38.2151 3.74669C39.003 3.74669 39.7726 3.74043 40.5421 3.7477C44.476 3.7848 47.5472 6.43758 48.1299 10.3036C48.167 10.5495 48.1763 10.8014 48.1776 11.0506C48.1841 12.244 47.4293 13.09 46.3447 13.114C45.2925 13.1376 44.5269 12.3886 44.4206 11.2315C44.2289 9.14877 42.9865 7.7295 41.0882 7.54727C40.1641 7.45853 39.2245 7.53198 38.2154 7.53198C38.2154 8.14686 38.2317 8.73216 38.2119 9.31621C38.1738 10.4434 37.3811 11.2473 36.3349 11.2448C35.2866 11.2423 34.4978 10.4447 34.4541 9.31646C34.4325 8.75522 34.4503 8.19248 34.4503 7.49613C33.0131 7.49613 31.5861 7.49613 30.1593 7.49613C28.7534 7.49613 27.3474 7.49613 25.871 7.49613C25.871 8.19273 25.9091 8.81563 25.8627 9.43227C25.78 10.5314 24.9928 11.2594 23.9729 11.2411C22.9922 11.2235 22.2334 10.5159 22.1449 9.4636C22.0929 8.84747 22.1353 8.22356 22.1353 7.55053C19.2906 7.55053 16.5191 7.55053 13.6586 7.55053C13.6586 8.1421 13.6872 8.73041 13.6526 9.31496C13.5836 10.4753 12.814 11.2481 11.7723 11.2476C10.7278 11.2471 9.9698 10.4768 9.90509 9.30819C9.87273 8.72264 9.89932 8.13408 9.89932 7.51844C8.95593 7.51844 8.10936 7.46656 7.27132 7.52872C5.21221 7.68163 3.79674 9.26282 3.78621 11.4536C3.76363 16.1385 3.77818 20.8235 3.77793 25.5084C3.77768 30.1622 3.88704 34.8193 3.74005 39.4684C3.63947 42.6498 5.49966 44.4446 8.51922 44.2639C10.7685 44.1292 13.0323 44.239 15.2895 44.237C16.2429 44.2363 16.935 44.6524 17.2242 45.5633C17.5149 46.479 17.1572 47.1683 16.3834 47.7358C16.0628 47.9709 15.7596 47.9762 15.4375 47.9775C12.7099 47.9875 9.98134 48.0276 7.25526 47.9682C3.35176 47.883 0.0577864 44.6439 0.0382212 40.75C-0.0119459 30.8182 -0.0142036 20.8856 0.0402277 10.9538C0.0615488 7.06675 3.37584 3.86877 7.28561 3.75672C8.12616 3.73266 8.96897 3.75321 9.85417 3.75321Z" fill="#19D29B"/>
<path d="M41.6876 24.5506C38.411 19.8844 31.5529 18.4353 26.2806 21.2079C21.5769 23.6815 19.0277 28.9833 19.9849 34.3019C20.8798 39.2756 25.1282 43.2942 30.2332 44.0703C32.934 44.4809 35.4599 44.0252 37.8767 42.809C38.9929 42.2472 39.8718 42.3603 40.4984 43.1238C41.3044 44.1059 40.9773 45.4244 39.7108 46.0801C36.0351 47.9827 32.1815 48.4968 28.1483 47.4638C20.6007 45.5309 15.5885 38.7016 16.0432 30.9756C16.5103 23.0426 23.0528 16.5233 30.991 16.0811C36.2448 15.7886 40.4826 17.5505 44.421 21.7624C44.421 20.7911 44.4115 19.9727 44.4233 19.1542C44.4416 17.8839 45.2079 17.0459 46.3228 17.0579C47.4398 17.0697 48.1712 17.8989 48.1825 19.1918C48.1928 20.3787 48.2026 21.5661 48.1788 22.7528C48.1166 25.8407 45.7015 28.2373 42.5949 28.2947C41.404 28.3168 40.2117 28.3143 39.0205 28.2957C37.7914 28.2767 37.0048 27.5274 37.0083 26.4208C37.0116 25.3229 37.809 24.5774 39.0333 24.5536C39.8786 24.5373 40.7247 24.5506 41.6876 24.5506Z" fill="#19D29B"/>
<path d="M33.9771 29.0681C33.9553 33.6939 34.4307 32.3909 31.0614 35.3159C30.7552 35.5819 30.4506 35.8566 30.1133 36.079C29.2945 36.6186 28.2925 36.4637 27.6611 35.7303C27.0511 35.0214 27.0393 33.9456 27.7205 33.2655C28.315 32.6719 28.9735 32.1355 29.6432 31.6254C30.0872 31.2873 30.244 30.906 30.2259 30.3555C30.1853 29.1092 30.1908 27.8609 30.2101 26.6136C30.2304 25.2939 30.9405 24.491 32.0575 24.4692C33.2046 24.4469 33.946 25.2751 33.9734 26.6357C33.9899 27.4463 33.9769 28.2575 33.9771 29.0681Z" fill="#19D29B"/>
<path d="M43.9344 38.022C44.9962 38.0358 45.7966 38.8831 45.762 39.9564C45.7296 40.9588 44.8584 41.7883 43.8724 41.7557C42.8783 41.7226 42.02 40.8626 42.012 39.892C42.0037 38.8658 42.8849 38.0085 43.9344 38.022Z" fill="#19D29B"/>
<path d="M44.4095 32.8163C44.4461 31.7984 45.2799 31.0188 46.3111 31.0378C47.3696 31.0574 48.2149 31.9445 48.1613 32.9797C48.1098 33.9731 47.2382 34.7845 46.2461 34.7625C45.1828 34.7386 44.3711 33.8786 44.4095 32.8163Z" fill="#19D29B"/>
</svg>
