<svg width="56" height="56" viewBox="0 0 56 56" fill="none" xmlns="http://www.w3.org/2000/svg">
<g filter="url(#filter0_d)">
<path d="M50.5938 16.125H40.5625V1.40625C40.5625 0.629517 39.933 0 39.1562 0H5.40625C4.62952 0 4 0.629517 4 1.40625V40.7809C4 44.7616 7.2384 48 11.2191 48H44.875C48.8037 48 52 44.8037 52 40.875V17.5312C52 16.7545 51.3705 16.125 50.5938 16.125ZM6.8125 40.7809V2.8125H37.75V40.875C37.75 42.4948 38.2942 43.9893 39.2083 45.1875H11.2191C8.78931 45.1875 6.8125 43.2107 6.8125 40.7809ZM49.1875 40.875C49.1875 43.2528 47.2528 45.1875 44.875 45.1875C42.4972 45.1875 40.5625 43.2528 40.5625 40.875V18.9375H49.1875V40.875Z" fill="#FF1FA5"/>
<path d="M19.4688 11.25H20.875V12.6562C20.875 13.433 21.5045 14.0625 22.2812 14.0625C23.058 14.0625 23.6875 13.433 23.6875 12.6562V11.25H25.0938C25.8705 11.25 26.5 10.6205 26.5 9.84375C26.5 9.06702 25.8705 8.4375 25.0938 8.4375H23.6875V7.03125C23.6875 6.25452 23.058 5.625 22.2812 5.625C21.5045 5.625 20.875 6.25452 20.875 7.03125V8.4375H19.4688C18.692 8.4375 18.0625 9.06702 18.0625 9.84375C18.0625 10.6205 18.692 11.25 19.4688 11.25Z" fill="#FF1FA5"/>
<path d="M15.2496 22.5H29.3129C30.0896 22.5 30.7191 21.8705 30.7191 21.0938C30.7191 20.3174 30.0896 19.6875 29.3129 19.6875H15.2496C14.4729 19.6875 13.8434 20.3174 13.8434 21.0938C13.8434 21.8705 14.4729 22.5 15.2496 22.5Z" fill="#FF1FA5"/>
<path d="M11.0316 28.125H33.5309C34.3076 28.125 34.9371 27.4955 34.9371 26.7188C34.9371 25.942 34.3076 25.3125 33.5309 25.3125H11.0316C10.2549 25.3125 9.62537 25.942 9.62537 26.7188C9.62537 27.4955 10.2549 28.125 11.0316 28.125Z" fill="#FF1FA5"/>
<path d="M34.9371 32.3438C34.9371 31.5674 34.3076 30.9375 33.5309 30.9375H11.0316C10.2549 30.9375 9.62537 31.5674 9.62537 32.3438C9.62537 33.1205 10.2549 33.75 11.0316 33.75H33.5309C34.3076 33.75 34.9371 33.1205 34.9371 32.3438Z" fill="#FF1FA5"/>
<path d="M33.5316 39.5625H27.9059C27.1295 39.5625 26.4996 40.192 26.4996 40.9688C26.4996 41.7455 27.1295 42.375 27.9059 42.375H33.5316C34.308 42.375 34.9379 41.7455 34.9379 40.9688C34.9379 40.192 34.308 39.5625 33.5316 39.5625Z" fill="#FF1FA5"/>
</g>
<defs>
<filter id="filter0_d" x="0" y="0" width="56" height="56" filterUnits="userSpaceOnUse" color-interpolation-filters="sRGB">
<feFlood flood-opacity="0" result="BackgroundImageFix"/>
<feColorMatrix in="SourceAlpha" type="matrix" values="0 0 0 0 0 0 0 0 0 0 0 0 0 0 0 0 0 0 127 0" result="hardAlpha"/>
<feOffset dy="4"/>
<feGaussianBlur stdDeviation="2"/>
<feComposite in2="hardAlpha" operator="out"/>
<feColorMatrix type="matrix" values="0 0 0 0 0 0 0 0 0 0 0 0 0 0 0 0 0 0 0.25 0"/>
<feBlend mode="normal" in2="BackgroundImageFix" result="effect1_dropShadow"/>
<feBlend mode="normal" in="SourceGraphic" in2="effect1_dropShadow" result="shape"/>
</filter>
</defs>
</svg>
