<svg width="48" height="47" viewBox="0 0 48 47" fill="none" xmlns="http://www.w3.org/2000/svg">
<path d="M12.9598 26.4178H27.2382C27.6408 26.4178 27.9677 26.7443 27.9677 27.1474C27.9677 27.5504 27.6412 27.8769 27.2382 27.8769H12.9598C12.5571 27.8769 12.2302 27.5504 12.2302 27.1474C12.2302 26.7443 12.5571 26.4178 12.9598 26.4178ZM12.9598 32.6169H25.1997C25.6024 32.6169 25.9293 32.2904 25.9293 31.8873C25.9293 31.4847 25.6028 31.1578 25.1997 31.1578H12.9598C12.5571 31.1578 12.2302 31.4843 12.2302 31.8873C12.2307 32.2904 12.5571 32.6169 12.9598 32.6169ZM17.3215 17.9513C18.6299 17.9487 19.6881 16.9011 19.6775 15.6192C19.6669 14.3581 18.5697 13.2641 17.3108 13.2596C16.0334 13.2552 14.9818 14.324 14.984 15.625C14.9862 16.9481 15.9966 17.954 17.3215 17.9513ZM13.3783 22.3937C16.0298 22.3937 18.633 22.3937 21.2353 22.3937C21.2646 20.8699 20.3539 19.4303 19.0459 18.8793C18.8386 18.792 18.6525 18.7464 18.4049 18.8195C17.7409 19.0162 17.0446 19.0259 16.3855 18.8319C16.0227 18.7252 15.7561 18.8115 15.4748 18.9688C14.161 19.7045 13.4625 20.8181 13.3783 22.3937ZM47.3351 45.4553H46.8302C46.463 45.4553 46.1653 45.7529 46.1653 46.1201C46.1653 46.4873 46.463 46.785 46.8302 46.785H47.3351C47.7023 46.785 48 46.4873 48 46.1201C47.9996 45.7525 47.7019 45.4553 47.3351 45.4553ZM39.1167 16.2929L30.6741 29.0263L34.8728 31.8041L43.334 19.0928L39.1167 16.2929ZM30.0721 35.8982H12.9598C12.5571 35.8982 12.2302 36.2247 12.2302 36.6278C12.2302 37.0304 12.5567 37.3573 12.9598 37.3573H30.0721C30.4748 37.3573 30.8017 37.0308 30.8017 36.6278C30.8017 36.2247 30.4752 35.8982 30.0721 35.8982ZM29.8325 30.7144L28.8713 36.2964L33.6365 33.2405L29.8325 30.7144ZM46.8838 12.0353C46.0891 11.4719 45.2227 10.8956 44.2354 10.2746C44.0095 10.1324 43.8252 10.0598 43.6604 10.0598C43.4381 10.0598 43.2512 10.1927 43.0447 10.4673C42.7466 10.8637 42.4698 11.2797 42.1775 11.7204L42.0238 11.9512L42.7878 12.4725C43.8553 13.1719 44.9029 13.8585 45.9523 14.5428C45.9943 14.5699 46.0351 14.5987 46.0758 14.6279C46.1144 14.6554 46.1529 14.6828 46.1937 14.7081C46.4484 14.4122 46.6437 14.095 46.8506 13.7593C46.9365 13.6193 47.0229 13.4793 47.1114 13.3411C47.5207 12.7015 47.4782 12.4575 46.8838 12.0353ZM40.1833 14.7497L44.3528 17.511L45.1665 16.2987L40.9926 13.532L40.1833 14.7497ZM32.7418 7.72766C32.9021 7.725 33.0647 7.72235 33.2286 7.72235C33.4359 7.72235 33.645 7.72677 33.854 7.74095C34.8006 7.80651 35.3556 8.37304 35.4172 9.33556C35.4291 9.53001 35.4274 9.72491 35.4261 9.92025L35.4243 10.1426V18.5068L36.385 17.0517C36.9082 16.2606 37.4308 15.4691 37.9571 14.6797C38.0501 14.5402 38.0899 14.3945 38.0895 14.1934C38.0873 12.779 38.0868 11.3647 38.0864 9.95037L38.0846 6.98085C38.0842 6.53835 37.9717 6.19861 37.7311 5.91113C37.3662 5.47616 36.9046 5.28259 36.2708 5.27728C34.8852 5.28348 33.501 5.2817 32.1159 5.28082L30.6174 5.27993C31.3478 6.03472 31.9631 6.83335 32.5084 7.7312C32.5863 7.73032 32.6643 7.72899 32.7418 7.72766ZM30.9417 8.85452C29.5366 6.38243 27.488 4.70942 24.6996 3.74999L24.4215 3.65432L24.402 3.3602C24.2593 1.2088 23.2463 0.0155032 21.5489 0C21.5379 0 21.5268 0 21.5157 0C19.8135 0 18.7726 1.19994 18.5834 3.38279L18.5591 3.66628L18.2911 3.76195C15.4686 4.76789 13.4275 6.4378 12.0703 8.8554H30.9417V8.85452ZM21.4249 0.872606C21.4364 0.872606 21.4484 0.872606 21.4604 0.872606C22.383 0.872606 23.0962 1.55962 23.1254 2.48449C23.1493 3.42797 22.4765 4.18275 21.56 4.24299C21.5272 4.24477 21.4949 4.24609 21.4621 4.24609C21.0471 4.24609 20.6316 4.076 20.3083 3.77125C19.9597 3.44214 19.7612 2.99654 19.7643 2.54872C19.7692 1.62695 20.4992 0.890767 21.4249 0.872606ZM1.16982 45.4553H0.664864C0.297661 45.4553 0 45.7529 0 46.1201C0 46.4873 0.297661 46.785 0.664864 46.785H1.16982C1.53703 46.785 1.83469 46.4873 1.83469 46.1201C1.83425 45.7525 1.53658 45.4553 1.16982 45.4553ZM45.1208 46.1197C45.1208 45.7525 44.8232 45.4548 44.456 45.4548H37.5057L37.6869 45.1988C37.9951 44.7629 38.0541 44.304 38.0518 43.6591C38.0412 40.349 38.0408 37.0397 38.0408 33.73L38.0403 32.2169C37.6182 32.8809 36.995 33.4284 36.2251 33.7628C35.3884 34.1264 35.3893 34.3878 35.3911 34.8613V34.9463C35.3875 36.3115 35.3857 37.6767 35.3853 39.0414C35.3853 39.3364 35.3875 39.6314 35.3902 39.9264C35.395 40.5341 35.3999 41.1627 35.3822 41.7837C35.3552 42.7205 34.8019 43.3234 33.8647 43.4372C33.6472 43.4633 33.4381 43.4598 33.237 43.4549L33.031 43.4523L17.8198 43.4536C15.0527 43.4554 12.2847 43.4558 9.51673 43.4492C8.12011 43.4461 7.56776 42.9017 7.5465 41.5073L7.54605 41.2982V41.2074L7.54428 13.3593C7.54207 12.0765 7.53985 10.7937 7.55181 9.51097C7.55757 8.89305 7.73741 8.41467 8.07183 8.12764C8.26274 7.96375 8.5985 7.78347 9.11276 7.85789C10.2316 8.01912 10.7707 7.48936 11.3248 6.52196C11.5893 6.06085 11.9334 5.67238 12.3308 5.27816C12.0433 5.28038 11.7585 5.28348 11.4763 5.28658C10.0341 5.30119 8.6707 5.31537 7.29712 5.25203C6.49361 5.21482 5.8881 5.38314 5.50318 5.75256C5.097 6.14191 4.89368 6.79083 4.89767 7.68115C4.94374 17.5332 4.93355 27.5496 4.92425 37.2364L4.91849 43.5696C4.91805 44.1557 4.94684 44.6832 5.30297 45.2023L5.47527 45.4535H3.96128C3.59408 45.4535 3.29686 45.7512 3.29641 46.1179C3.29641 46.4851 3.59408 46.7828 3.96128 46.7828H44.456C44.8232 46.7845 45.1208 46.4869 45.1208 46.1197Z" fill="#F4A203"/>
</svg>
