<svg width="49" height="49" viewBox="0 0 49 49" fill="none" xmlns="http://www.w3.org/2000/svg">
<path d="M12.6544 35.9415C12.6544 37.2613 13.7282 38.335 15.0479 38.335C16.3677 38.335 17.4414 37.2613 17.4414 35.9415C17.4414 34.6216 16.3677 33.548 15.0479 33.548C13.7282 33.5479 12.6544 34.6216 12.6544 35.9415ZM16.0646 35.9415C16.0646 36.502 15.6085 36.9581 15.048 36.9581C14.4875 36.9581 14.0314 36.502 14.0314 35.9415C14.0314 35.381 14.4874 34.9248 15.048 34.9248C15.6086 34.9248 16.0646 35.3809 16.0646 35.9415Z" fill="#50CF15"/>
<path d="M41.1415 18.021L41.1656 17.9786C42.3455 18.651 42.3441 20.3497 41.1656 21.0213L41.1409 20.9779L41.1656 21.0213C40.9198 21.1614 40.8003 21.4497 40.875 21.7226C41.2358 23.0368 40.0292 24.2329 38.7242 23.8755C38.4495 23.8003 38.1613 23.9199 38.0213 24.1656C37.349 25.3454 35.6503 25.3442 34.9787 24.1656L35.0221 24.1408L34.9787 24.1656C34.8387 23.9199 34.5503 23.8004 34.2774 23.8751C32.9645 24.2345 31.7667 23.031 32.1245 21.7242M41.1415 18.021L31.8344 21.0213C31.8344 21.0213 31.8344 21.0213 31.8344 21.0213M41.1415 18.021L41.1656 17.9786C40.9302 17.8445 40.7968 17.5646 40.8755 17.2757M41.1415 18.021L31.8344 21.0213M32.1245 21.7242L32.1727 21.7374L32.1245 21.7242C32.1245 21.7242 32.1245 21.7242 32.1245 21.7242ZM32.1245 21.7242C32.1997 21.4497 32.0801 21.1614 31.8344 21.0213M31.8344 21.0213C30.6545 20.349 30.6559 18.6503 31.8344 17.9787C32.0802 17.8386 32.1997 17.5503 32.1249 17.2775L32.1248 17.2771C31.765 15.9223 33.0015 14.7757 34.2757 15.1245L34.2625 15.1727L34.2757 15.1245C34.5503 15.1997 34.8386 15.0801 34.9787 14.8344L35.0204 14.8582L34.9787 14.8344C35.651 13.6545 37.3497 13.6559 38.0213 14.8344L37.9778 14.8591L38.0213 14.8344C38.1613 15.0802 38.4497 15.1997 38.7225 15.1249L38.7225 15.1249C40.0356 14.7656 41.2333 15.9689 40.8755 17.2757M40.8755 17.2757L40.8273 17.2625L40.8755 17.2757C40.8755 17.2757 40.8755 17.2757 40.8755 17.2757ZM32.3949 20.0378L32.3949 20.0378C31.9782 19.8005 31.9778 19.2 32.3949 18.9622C33.09 18.5661 33.4281 17.7505 33.2185 16.9851C33.0881 16.4934 33.527 16.0932 33.9785 16.2168L33.9785 16.2168C34.7501 16.428 35.566 16.0901 35.9621 15.3949L35.9187 15.3702L35.9621 15.3949C36.1996 14.9782 36.8001 14.9779 37.0378 15.3949L37.0812 15.3702L37.0378 15.3949C37.434 16.0902 38.2499 16.428 39.0232 16.2164L39.0232 16.2164C39.4815 16.0907 39.9114 16.5086 39.7832 16.9786C39.572 17.7504 39.9099 18.5662 40.6051 18.9623L40.6051 18.9623C41.0218 19.1997 41.0223 19.8001 40.6052 20.0378C39.9217 20.4274 39.5674 21.235 39.7837 22.0232C39.91 22.4847 39.4877 22.911 39.0216 22.7833C38.2496 22.5719 37.434 22.91 37.0379 23.6052L37.0813 23.6299L37.0379 23.6052C36.8004 24.0219 36.1999 24.0222 35.9622 23.6052C35.5671 22.9117 34.7523 22.5714 33.9768 22.7838C33.5155 22.9101 33.0891 22.4878 33.2168 22.0216L33.1686 22.0084L33.2168 22.0216C33.4281 21.2498 33.0901 20.434 32.3949 20.0378Z" fill="#50CF15" stroke="#50CF15" stroke-width="0.1"/>
<mask id="path-3-outside-1" maskUnits="userSpaceOnUse" x="0.328003" y="0" width="48" height="49" fill="black">
<rect fill="white" x="0.328003" width="48" height="49"/>
<path d="M45.3284 12.3412C45.0946 12.0414 44.662 11.9878 44.3621 12.2217C44.0623 12.4555 44.0088 12.8882 44.2426 13.188C45.5854 14.9099 46.2952 16.9769 46.2952 19.1655C46.2952 24.5308 41.9302 28.8956 36.5651 28.8956C31.3194 28.8956 27.0152 24.7041 26.841 19.4943C28.8374 17.4964 28.7649 17.5785 28.8762 17.4424C28.8997 17.4006 29.3922 16.8756 29.3922 15.9907C29.3922 14.7538 28.4986 14.2017 28.3323 13.9783C30.1093 11.1634 33.2176 9.4355 36.5652 9.4355C38.6921 9.4355 40.7124 10.1094 42.4076 11.3844C42.7115 11.613 43.143 11.5519 43.3716 11.248C43.6002 10.9442 43.5391 10.5126 43.2352 10.284C41.2995 8.82817 38.993 8.05864 36.5652 8.05864C32.8482 8.05864 29.3908 9.92579 27.3384 12.9845L26.8551 12.5012C26.128 11.7741 25.0313 11.6368 24.1645 12.0888L15.6184 3.54269C14.3479 2.27241 12.3736 2.12608 10.9401 3.10216L9.58495 1.74696C8.58904 0.751058 6.97718 0.750967 5.98119 1.74696L4.16021 3.56785C3.16431 4.56375 3.16422 6.1757 4.16021 7.17161L5.51486 8.52625C4.68804 9.73577 4.66675 11.3253 5.4361 12.5517C2.78317 15.5431 1.328 19.3583 1.328 23.3604C1.328 25.5715 1.76679 27.7188 2.63216 29.7428C2.78161 30.0924 3.18606 30.2545 3.53581 30.1051C3.88546 29.9557 4.04767 29.551 3.89822 29.2014C3.10638 27.3494 2.70496 25.3842 2.70496 23.3604C2.70496 19.756 3.99397 16.3163 6.34874 13.5977L9.93488 17.1839C8.52635 18.9361 7.75773 21.1049 7.75773 23.3604C7.75773 26.5253 9.2912 29.4884 11.8236 31.3338C10.6357 32.26 10.3656 33.136 8.83396 35.4041C7.41202 34.3656 6.19526 33.0961 5.21037 31.6225C4.99914 31.3064 4.57165 31.2214 4.25541 31.4327C3.93926 31.644 3.85425 32.0715 4.06557 32.3877C5.1563 34.0197 6.50865 35.4216 8.09022 36.5645L5.76115 40.1985C3.66387 40.395 2.01675 42.1648 2.01675 44.3126V45.8369C2.01685 47.0297 2.98714 48 4.17986 48H35.7324C37.2443 48 38.4743 46.77 38.4743 45.2581C38.4743 42.4579 36.196 40.1797 33.3959 40.1797H20.934V37.6921H31.1555C32.2955 37.6921 33.223 36.7645 33.223 35.6245C33.223 33.2913 31.3248 31.393 28.9916 31.393H18.8211C17.8535 30.6146 16.6254 30.1473 15.2898 30.1473C14.5412 30.1473 13.8163 30.2936 13.1482 30.5667C10.6642 29.0201 9.13468 26.2907 9.13468 23.3604C9.13468 21.4709 9.76359 19.6522 10.9163 18.1653L14.5017 21.7507C14.0523 22.6083 14.1786 23.7059 14.9145 24.4417L16.7782 26.3055C17.6768 27.2041 19.1313 27.2042 20.0301 26.3055L25.5728 20.7628C25.912 23.132 27.0033 25.3186 28.7287 27.0365C30.8245 29.1234 33.6075 30.2727 36.5652 30.2727C42.6896 30.2727 47.6722 25.29 47.6722 19.1656C47.6721 16.6674 46.8616 14.3074 45.3284 12.3412ZM37.0973 45.2581C37.0973 46.0108 36.485 46.6231 35.7324 46.6231H4.17986C3.74639 46.6231 3.3938 46.2705 3.3938 45.837V44.3127C3.3938 42.793 4.63012 41.5566 6.14982 41.5566H33.3959C35.4369 41.5566 37.0973 43.2171 37.0973 45.2581ZM28.9916 32.77C30.5656 32.77 31.8461 34.0506 31.8461 35.6245C31.8461 36.0053 31.5362 36.3151 31.1555 36.3151H20.9341C20.8995 36.0793 21.1428 34.4829 20.0557 32.77H28.9916ZM19.5563 35.761C19.5564 35.7713 19.5571 35.7814 19.5571 35.7916V40.1797H7.40881C12.0086 33.0035 11.7738 33.3407 12.0503 33.0147C12.843 32.0919 14.0051 31.5242 15.2898 31.5242C17.6176 31.5242 19.5392 33.4038 19.5563 35.761ZM14.6446 4.51638L23.1163 12.9879L17.9729 18.1313L15.4012 20.7029C6.28724 11.5889 6.93064 12.2354 6.84086 12.1372C6.03011 11.2324 6.05664 9.84033 6.92963 8.96743L11.3807 4.51638C12.2804 3.61668 13.7446 3.61631 14.6446 4.51638ZM5.13381 4.54144L6.95469 2.72056C7.41138 2.26387 8.15448 2.26378 8.61126 2.72056L9.92019 4.02949L6.44283 7.50694L5.13381 6.19801C4.67712 5.74132 4.67712 4.99813 5.13381 4.54144ZM19.0564 25.3317C18.6961 25.6921 18.1123 25.6923 17.7517 25.3317L15.888 23.4679C15.5275 23.1075 15.5274 22.524 15.888 22.1633L18.7842 19.2671L24.5768 13.4745C24.9373 13.1143 25.5207 13.1142 25.8813 13.4747L27.7449 15.3384C28.0961 15.6906 28.113 16.2728 27.7449 16.643L19.0564 25.3317Z"/>
</mask>
<path d="M45.3284 12.3412C45.0946 12.0414 44.662 11.9878 44.3621 12.2217C44.0623 12.4555 44.0088 12.8882 44.2426 13.188C45.5854 14.9099 46.2952 16.9769 46.2952 19.1655C46.2952 24.5308 41.9302 28.8956 36.5651 28.8956C31.3194 28.8956 27.0152 24.7041 26.841 19.4943C28.8374 17.4964 28.7649 17.5785 28.8762 17.4424C28.8997 17.4006 29.3922 16.8756 29.3922 15.9907C29.3922 14.7538 28.4986 14.2017 28.3323 13.9783C30.1093 11.1634 33.2176 9.4355 36.5652 9.4355C38.6921 9.4355 40.7124 10.1094 42.4076 11.3844C42.7115 11.613 43.143 11.5519 43.3716 11.248C43.6002 10.9442 43.5391 10.5126 43.2352 10.284C41.2995 8.82817 38.993 8.05864 36.5652 8.05864C32.8482 8.05864 29.3908 9.92579 27.3384 12.9845L26.8551 12.5012C26.128 11.7741 25.0313 11.6368 24.1645 12.0888L15.6184 3.54269C14.3479 2.27241 12.3736 2.12608 10.9401 3.10216L9.58495 1.74696C8.58904 0.751058 6.97718 0.750967 5.98119 1.74696L4.16021 3.56785C3.16431 4.56375 3.16422 6.1757 4.16021 7.17161L5.51486 8.52625C4.68804 9.73577 4.66675 11.3253 5.4361 12.5517C2.78317 15.5431 1.328 19.3583 1.328 23.3604C1.328 25.5715 1.76679 27.7188 2.63216 29.7428C2.78161 30.0924 3.18606 30.2545 3.53581 30.1051C3.88546 29.9557 4.04767 29.551 3.89822 29.2014C3.10638 27.3494 2.70496 25.3842 2.70496 23.3604C2.70496 19.756 3.99397 16.3163 6.34874 13.5977L9.93488 17.1839C8.52635 18.9361 7.75773 21.1049 7.75773 23.3604C7.75773 26.5253 9.2912 29.4884 11.8236 31.3338C10.6357 32.26 10.3656 33.136 8.83396 35.4041C7.41202 34.3656 6.19526 33.0961 5.21037 31.6225C4.99914 31.3064 4.57165 31.2214 4.25541 31.4327C3.93926 31.644 3.85425 32.0715 4.06557 32.3877C5.1563 34.0197 6.50865 35.4216 8.09022 36.5645L5.76115 40.1985C3.66387 40.395 2.01675 42.1648 2.01675 44.3126V45.8369C2.01685 47.0297 2.98714 48 4.17986 48H35.7324C37.2443 48 38.4743 46.77 38.4743 45.2581C38.4743 42.4579 36.196 40.1797 33.3959 40.1797H20.934V37.6921H31.1555C32.2955 37.6921 33.223 36.7645 33.223 35.6245C33.223 33.2913 31.3248 31.393 28.9916 31.393H18.8211C17.8535 30.6146 16.6254 30.1473 15.2898 30.1473C14.5412 30.1473 13.8163 30.2936 13.1482 30.5667C10.6642 29.0201 9.13468 26.2907 9.13468 23.3604C9.13468 21.4709 9.76359 19.6522 10.9163 18.1653L14.5017 21.7507C14.0523 22.6083 14.1786 23.7059 14.9145 24.4417L16.7782 26.3055C17.6768 27.2041 19.1313 27.2042 20.0301 26.3055L25.5728 20.7628C25.912 23.132 27.0033 25.3186 28.7287 27.0365C30.8245 29.1234 33.6075 30.2727 36.5652 30.2727C42.6896 30.2727 47.6722 25.29 47.6722 19.1656C47.6721 16.6674 46.8616 14.3074 45.3284 12.3412ZM37.0973 45.2581C37.0973 46.0108 36.485 46.6231 35.7324 46.6231H4.17986C3.74639 46.6231 3.3938 46.2705 3.3938 45.837V44.3127C3.3938 42.793 4.63012 41.5566 6.14982 41.5566H33.3959C35.4369 41.5566 37.0973 43.2171 37.0973 45.2581ZM28.9916 32.77C30.5656 32.77 31.8461 34.0506 31.8461 35.6245C31.8461 36.0053 31.5362 36.3151 31.1555 36.3151H20.9341C20.8995 36.0793 21.1428 34.4829 20.0557 32.77H28.9916ZM19.5563 35.761C19.5564 35.7713 19.5571 35.7814 19.5571 35.7916V40.1797H7.40881C12.0086 33.0035 11.7738 33.3407 12.0503 33.0147C12.843 32.0919 14.0051 31.5242 15.2898 31.5242C17.6176 31.5242 19.5392 33.4038 19.5563 35.761ZM14.6446 4.51638L23.1163 12.9879L17.9729 18.1313L15.4012 20.7029C6.28724 11.5889 6.93064 12.2354 6.84086 12.1372C6.03011 11.2324 6.05664 9.84033 6.92963 8.96743L11.3807 4.51638C12.2804 3.61668 13.7446 3.61631 14.6446 4.51638ZM5.13381 4.54144L6.95469 2.72056C7.41138 2.26387 8.15448 2.26378 8.61126 2.72056L9.92019 4.02949L6.44283 7.50694L5.13381 6.19801C4.67712 5.74132 4.67712 4.99813 5.13381 4.54144ZM19.0564 25.3317C18.6961 25.6921 18.1123 25.6923 17.7517 25.3317L15.888 23.4679C15.5275 23.1075 15.5274 22.524 15.888 22.1633L18.7842 19.2671L24.5768 13.4745C24.9373 13.1143 25.5207 13.1142 25.8813 13.4747L27.7449 15.3384C28.0961 15.6906 28.113 16.2728 27.7449 16.643L19.0564 25.3317Z" fill="#50CF15"/>
<path d="M45.3284 12.3412C45.0946 12.0414 44.662 11.9878 44.3621 12.2217C44.0623 12.4555 44.0088 12.8882 44.2426 13.188C45.5854 14.9099 46.2952 16.9769 46.2952 19.1655C46.2952 24.5308 41.9302 28.8956 36.5651 28.8956C31.3194 28.8956 27.0152 24.7041 26.841 19.4943C28.8374 17.4964 28.7649 17.5785 28.8762 17.4424C28.8997 17.4006 29.3922 16.8756 29.3922 15.9907C29.3922 14.7538 28.4986 14.2017 28.3323 13.9783C30.1093 11.1634 33.2176 9.4355 36.5652 9.4355C38.6921 9.4355 40.7124 10.1094 42.4076 11.3844C42.7115 11.613 43.143 11.5519 43.3716 11.248C43.6002 10.9442 43.5391 10.5126 43.2352 10.284C41.2995 8.82817 38.993 8.05864 36.5652 8.05864C32.8482 8.05864 29.3908 9.92579 27.3384 12.9845L26.8551 12.5012C26.128 11.7741 25.0313 11.6368 24.1645 12.0888L15.6184 3.54269C14.3479 2.27241 12.3736 2.12608 10.9401 3.10216L9.58495 1.74696C8.58904 0.751058 6.97718 0.750967 5.98119 1.74696L4.16021 3.56785C3.16431 4.56375 3.16422 6.1757 4.16021 7.17161L5.51486 8.52625C4.68804 9.73577 4.66675 11.3253 5.4361 12.5517C2.78317 15.5431 1.328 19.3583 1.328 23.3604C1.328 25.5715 1.76679 27.7188 2.63216 29.7428C2.78161 30.0924 3.18606 30.2545 3.53581 30.1051C3.88546 29.9557 4.04767 29.551 3.89822 29.2014C3.10638 27.3494 2.70496 25.3842 2.70496 23.3604C2.70496 19.756 3.99397 16.3163 6.34874 13.5977L9.93488 17.1839C8.52635 18.9361 7.75773 21.1049 7.75773 23.3604C7.75773 26.5253 9.2912 29.4884 11.8236 31.3338C10.6357 32.26 10.3656 33.136 8.83396 35.4041C7.41202 34.3656 6.19526 33.0961 5.21037 31.6225C4.99914 31.3064 4.57165 31.2214 4.25541 31.4327C3.93926 31.644 3.85425 32.0715 4.06557 32.3877C5.1563 34.0197 6.50865 35.4216 8.09022 36.5645L5.76115 40.1985C3.66387 40.395 2.01675 42.1648 2.01675 44.3126V45.8369C2.01685 47.0297 2.98714 48 4.17986 48H35.7324C37.2443 48 38.4743 46.77 38.4743 45.2581C38.4743 42.4579 36.196 40.1797 33.3959 40.1797H20.934V37.6921H31.1555C32.2955 37.6921 33.223 36.7645 33.223 35.6245C33.223 33.2913 31.3248 31.393 28.9916 31.393H18.8211C17.8535 30.6146 16.6254 30.1473 15.2898 30.1473C14.5412 30.1473 13.8163 30.2936 13.1482 30.5667C10.6642 29.0201 9.13468 26.2907 9.13468 23.3604C9.13468 21.4709 9.76359 19.6522 10.9163 18.1653L14.5017 21.7507C14.0523 22.6083 14.1786 23.7059 14.9145 24.4417L16.7782 26.3055C17.6768 27.2041 19.1313 27.2042 20.0301 26.3055L25.5728 20.7628C25.912 23.132 27.0033 25.3186 28.7287 27.0365C30.8245 29.1234 33.6075 30.2727 36.5652 30.2727C42.6896 30.2727 47.6722 25.29 47.6722 19.1656C47.6721 16.6674 46.8616 14.3074 45.3284 12.3412ZM37.0973 45.2581C37.0973 46.0108 36.485 46.6231 35.7324 46.6231H4.17986C3.74639 46.6231 3.3938 46.2705 3.3938 45.837V44.3127C3.3938 42.793 4.63012 41.5566 6.14982 41.5566H33.3959C35.4369 41.5566 37.0973 43.2171 37.0973 45.2581ZM28.9916 32.77C30.5656 32.77 31.8461 34.0506 31.8461 35.6245C31.8461 36.0053 31.5362 36.3151 31.1555 36.3151H20.9341C20.8995 36.0793 21.1428 34.4829 20.0557 32.77H28.9916ZM19.5563 35.761C19.5564 35.7713 19.5571 35.7814 19.5571 35.7916V40.1797H7.40881C12.0086 33.0035 11.7738 33.3407 12.0503 33.0147C12.843 32.0919 14.0051 31.5242 15.2898 31.5242C17.6176 31.5242 19.5392 33.4038 19.5563 35.761ZM14.6446 4.51638L23.1163 12.9879L17.9729 18.1313L15.4012 20.7029C6.28724 11.5889 6.93064 12.2354 6.84086 12.1372C6.03011 11.2324 6.05664 9.84033 6.92963 8.96743L11.3807 4.51638C12.2804 3.61668 13.7446 3.61631 14.6446 4.51638ZM5.13381 4.54144L6.95469 2.72056C7.41138 2.26387 8.15448 2.26378 8.61126 2.72056L9.92019 4.02949L6.44283 7.50694L5.13381 6.19801C4.67712 5.74132 4.67712 4.99813 5.13381 4.54144ZM19.0564 25.3317C18.6961 25.6921 18.1123 25.6923 17.7517 25.3317L15.888 23.4679C15.5275 23.1075 15.5274 22.524 15.888 22.1633L18.7842 19.2671L24.5768 13.4745C24.9373 13.1143 25.5207 13.1142 25.8813 13.4747L27.7449 15.3384C28.0961 15.6906 28.113 16.2728 27.7449 16.643L19.0564 25.3317Z" stroke="#50CF15" stroke-width="0.8" mask="url(#path-3-outside-1)"/>
</svg>
