<svg width="48" height="48" viewBox="0 0 48 48" fill="none" xmlns="http://www.w3.org/2000/svg">
<path d="M47.9032 27.4629C47.9036 32.6777 47.9079 37.893 47.9023 43.1079C47.8985 46.3796 46.2763 47.997 43.0183 47.9974C32.9897 47.9979 22.9612 48.0043 12.9326 47.9949C6.6116 47.9889 1.49874 43.8099 0.312027 37.6213C-1.04397 30.5499 3.80789 24.0557 10.5596 22.9041C11.2132 22.7927 11.3495 22.5591 11.3469 21.9549C11.3267 16.2716 11.3332 10.5883 11.3353 4.905C11.3366 1.632 12.951 0.0137108 16.2099 0.0137108C22.9895 0.0132822 29.7686 0.0244251 36.5482 -3.47312e-06C37.3625 -0.00300347 37.9659 0.243425 38.5346 0.819425C41.3439 3.66428 44.169 6.49328 47.0195 9.29614C47.646 9.912 47.9212 10.5626 47.9165 11.4433C47.8882 16.7829 47.9023 22.1229 47.9032 27.4629ZM20.6945 45.1847C21.2255 45.1847 21.528 45.1847 21.8306 45.1847C28.8939 45.1847 35.9567 45.1851 43.02 45.1847C44.7035 45.1847 45.0875 44.7947 45.0875 43.074C45.0883 33.1089 45.0887 23.1441 45.0845 13.179C45.0845 12.8734 45.1577 12.555 44.967 12.198C42.594 12.198 40.1923 12.1984 37.7906 12.198C36.0862 12.1976 35.7142 11.8239 35.7129 10.1044C35.7112 7.70442 35.7125 5.30485 35.7125 2.90914C35.5475 2.86971 35.4609 2.83114 35.3743 2.83114C28.8112 2.82771 22.248 2.82171 15.6849 2.83285C14.6503 2.83457 14.1549 3.39085 14.1532 4.52871C14.1437 10.3701 14.1549 16.2116 14.1382 22.053C14.1365 22.5874 14.2642 22.8116 14.838 22.89C16.7893 23.157 18.5503 23.9344 20.1326 25.0971C20.5307 25.3899 20.9237 25.5163 21.4175 25.5133C24.6677 25.494 27.918 25.5004 31.1683 25.4996C34.0123 25.4987 36.8563 25.4897 39.7003 25.5039C41.0032 25.5103 41.7305 26.6177 41.1232 27.6261C40.7495 28.2467 40.1567 28.3243 39.4985 28.323C34.4357 28.3127 29.3726 28.3174 24.3099 28.3174C24.0146 28.3174 23.7197 28.3174 23.2805 28.3174C24.423 30.1299 25.0813 31.9491 25.3359 33.939C25.7062 33.939 26.0156 33.939 26.3246 33.939C30.6373 33.9373 34.9505 33.9356 39.2632 33.9339C39.4196 33.9339 39.5756 33.93 39.732 33.9343C40.7229 33.9626 41.3495 34.5321 41.3272 35.3816C41.3057 36.1941 40.7006 36.744 39.7496 36.747C36.3433 36.7581 32.9366 36.7513 29.5299 36.7513C28.1302 36.7513 26.73 36.7513 25.3316 36.7513C24.8833 40.128 23.4022 42.8619 20.6945 45.1847ZM22.578 35.3464C22.5583 29.868 18.1582 25.4974 12.6712 25.5064C7.32346 25.5154 2.91946 29.9297 2.90488 35.2963C2.88946 40.8 7.33631 45.2173 12.858 45.1839C18.2019 45.1513 22.5973 40.7027 22.578 35.3464ZM42.7929 9.34371C41.3996 7.962 39.9832 6.55757 38.5809 5.16685C38.5809 6.498 38.5809 7.91057 38.5809 9.34371C40.0432 9.34371 41.4617 9.34371 42.7929 9.34371Z" fill="#FF3541"/>
<path d="M29.6186 19.8879C26.2757 19.8879 22.9324 19.8921 19.5896 19.8853C18.5636 19.8831 17.9409 19.3641 17.9117 18.5246C17.8809 17.6413 18.5177 17.0747 19.5879 17.0726C23.712 17.0649 27.8361 17.0674 31.9599 17.0661C34.4906 17.0653 37.0213 17.0623 39.552 17.0661C40.6963 17.0679 41.3537 17.6147 41.3241 18.5207C41.2963 19.3873 40.6659 19.8797 39.5537 19.881C36.2421 19.8849 32.9301 19.8823 29.6186 19.8823C29.6186 19.8844 29.6186 19.8861 29.6186 19.8879Z" fill="#FF3541"/>
<path d="M10.6877 37.464C12.4624 35.6876 14.1137 34.035 15.7654 32.3829C15.9639 32.1844 16.1516 31.9731 16.3667 31.7949C16.9847 31.2836 17.7896 31.2986 18.3154 31.8159C18.8567 32.3486 18.9176 33.1419 18.3621 33.7491C17.5637 34.6221 16.7027 35.4386 15.8661 36.2769C14.5667 37.5784 13.2737 38.8864 11.9619 40.1751C11.1531 40.9693 10.4083 40.9727 9.60729 40.1961C8.75701 39.372 7.91701 38.5359 7.09501 37.683C6.39944 36.9613 6.37972 36.1251 7.00329 35.541C7.58658 34.9941 8.40729 35.0361 9.08444 35.7064C9.63644 36.2533 10.1344 36.8533 10.6877 37.464Z" fill="#FF3541"/>
</svg>
