<svg width="50" height="47" viewBox="0 0 50 47" fill="none" xmlns="http://www.w3.org/2000/svg">
<mask id="path-1-outside-1" maskUnits="userSpaceOnUse" x="0" y="0" width="50" height="47" fill="black">
<rect fill="white" width="50" height="47"/>
<path fill-rule="evenodd" clip-rule="evenodd" d="M7.19935 35.8149L7.37749 9.37206C7.38182 8.76208 7.8736 8.18199 8.53584 8.18199H27.2498C28.879 4.05412 32.9666 1 37.7471 1C43.9536 1 49 6.05866 49 12.2637C49 18.4692 43.9513 23.5282 37.7452 23.5282C37.6795 23.5282 37.6132 23.5276 37.5471 23.5264V40.3354C37.5471 43.8669 34.687 46.7314 31.1555 46.737L6.73693 46.737L6.90162 46.7376C3.66982 46.4026 1.00997 43.633 1 40.3437L1 40.3425V36.9374C1 36.2596 1.57809 35.8149 2.17854 35.8149H7.19935ZM26.2011 44.4202C25.2446 43.2761 24.7137 41.8277 24.7126 40.3241L24.7126 38.1316H3.31673V40.3338C3.32742 42.5918 5.15924 44.4172 7.417 44.4202H26.2011ZM35.2303 40.3347V23.245C32.4448 22.6015 30.0088 20.915 28.4266 18.5304H20.5853C19.945 18.5304 19.4269 18.0116 19.4269 17.372C19.4269 16.7325 19.945 16.2137 20.5853 16.2137H27.2232C26.74 14.9427 26.4921 13.5926 26.4935 12.2293L26.4935 12.2277C26.4965 11.6486 26.5419 11.0708 26.6292 10.4987H9.68634L9.51609 35.8149H25.8997C26.201 35.8065 26.4928 35.9221 26.7068 36.1355C26.9212 36.3493 27.0372 36.6414 27.0294 36.943V40.3238C27.0412 42.5866 28.8768 44.4161 31.1403 44.4202H31.1534C33.4063 44.4158 35.2307 42.588 35.2303 40.3347ZM28.8106 12.275C28.8102 17.2106 32.8114 21.2116 37.7467 21.2118C42.6806 21.2065 46.6787 17.2081 46.684 12.2745C46.6838 7.33919 42.6828 3.33802 37.7475 3.33802C32.8116 3.33802 28.8106 7.33907 28.8106 12.275ZM37.6317 8.09736C37.6108 8.09736 37.5903 8.09587 37.5697 8.09437C36.6547 8.16571 35.9596 8.94781 35.9954 9.86475C36.0317 10.7817 36.7858 11.5063 37.7034 11.5059C39.3573 11.5055 40.7456 12.7515 40.9234 14.3957C41.1015 16.0398 40.012 17.554 38.3967 17.9077V18.7107C38.3967 19.1331 38.0542 19.4756 37.6317 19.4756C37.2093 19.4756 36.8668 19.1331 36.8668 18.7107V17.8725C35.4512 17.492 34.4667 16.2097 34.4648 14.7441C34.4648 14.3217 34.8073 13.9792 35.2298 13.9792C35.6522 13.9792 35.9947 14.3217 35.9947 14.7441C35.9947 15.6876 36.7596 16.4529 37.7034 16.4529C38.6473 16.4529 39.4122 15.6876 39.4122 14.7441C39.4122 13.8003 38.6473 13.035 37.7034 13.035C36.078 13.035 34.7042 11.8301 34.4925 10.2185C34.2807 8.60681 35.2966 7.08779 36.8668 6.66798V5.8982C36.8668 5.47578 37.2093 5.13328 37.6317 5.13328C38.0542 5.13328 38.3967 5.47578 38.3967 5.8982V6.63325C39.8817 6.96043 40.9402 8.27589 40.942 9.7964C40.942 10.2188 40.5995 10.5613 40.1771 10.5613C39.7547 10.5613 39.4122 10.2188 39.4122 9.7964C39.4111 8.86676 38.6671 8.10856 37.7374 8.08952C37.7027 8.09437 37.6672 8.09736 37.6317 8.09736ZM13.227 24.0685C13.227 22.7612 14.3251 21.6979 15.6753 21.6979C17.0254 21.6979 18.1239 22.7612 18.1239 24.0685C18.1239 25.3757 17.0254 26.4391 15.6753 26.4391C14.3251 26.4391 13.227 25.3757 13.227 24.0685ZM14.7568 24.0685C14.7568 24.532 15.1684 24.9092 15.6753 24.9092C16.1817 24.9092 16.5941 24.532 16.5941 24.0685C16.5941 23.605 16.1817 23.2277 15.6753 23.2277C15.1688 23.2277 14.7568 23.6046 14.7568 24.0685ZM19.4268 24.0652C19.4268 24.7048 19.945 25.2235 20.5852 25.2235H30.7832C31.4229 25.2235 31.9416 24.7049 31.9416 24.0652C31.9416 23.4255 31.4229 22.9068 30.7832 22.9068H20.5852C19.945 22.9068 19.4268 23.4256 19.4268 24.0652ZM15.6753 15.0485C14.3251 15.0485 13.227 16.1123 13.227 17.4195C13.227 18.7267 14.3251 19.7901 15.6753 19.7901C17.0254 19.7901 18.1239 18.7267 18.1239 17.4195C18.1239 16.1123 17.0254 15.0485 15.6753 15.0485ZM15.6753 18.2602C15.1684 18.2602 14.7568 17.883 14.7568 17.4195C14.7568 16.956 15.1688 16.5784 15.6753 16.5784C16.1817 16.5784 16.5941 16.9556 16.5941 17.4195C16.5941 17.883 16.1817 18.2602 15.6753 18.2602ZM13.227 30.7171C13.227 29.4099 14.3251 28.3465 15.6753 28.3465C17.0254 28.3465 18.1239 29.4099 18.1239 30.7171C18.1239 32.0244 17.0254 33.0877 15.6753 33.0877C14.3251 33.0877 13.227 32.0244 13.227 30.7171ZM14.7568 30.7171C14.7568 31.181 15.1684 31.5579 15.6753 31.5579C16.1817 31.5579 16.5941 31.1807 16.5941 30.7171C16.5941 30.2536 16.1817 29.8764 15.6753 29.8764C15.1688 29.8764 14.7568 30.2536 14.7568 30.7171ZM30.7832 29.5999H20.5852C19.945 29.5999 19.4268 30.1187 19.4268 30.7583C19.4268 31.3978 19.945 31.9166 20.5852 31.9166H30.7832C31.4229 31.9166 31.9416 31.398 31.9416 30.7583C31.9416 30.1185 31.4229 29.5999 30.7832 29.5999Z"/>
</mask>
<path fill-rule="evenodd" clip-rule="evenodd" d="M7.19935 35.8149L7.37749 9.37206C7.38182 8.76208 7.8736 8.18199 8.53584 8.18199H27.2498C28.879 4.05412 32.9666 1 37.7471 1C43.9536 1 49 6.05866 49 12.2637C49 18.4692 43.9513 23.5282 37.7452 23.5282C37.6795 23.5282 37.6132 23.5276 37.5471 23.5264V40.3354C37.5471 43.8669 34.687 46.7314 31.1555 46.737L6.73693 46.737L6.90162 46.7376C3.66982 46.4026 1.00997 43.633 1 40.3437L1 40.3425V36.9374C1 36.2596 1.57809 35.8149 2.17854 35.8149H7.19935ZM26.2011 44.4202C25.2446 43.2761 24.7137 41.8277 24.7126 40.3241L24.7126 38.1316H3.31673V40.3338C3.32742 42.5918 5.15924 44.4172 7.417 44.4202H26.2011ZM35.2303 40.3347V23.245C32.4448 22.6015 30.0088 20.915 28.4266 18.5304H20.5853C19.945 18.5304 19.4269 18.0116 19.4269 17.372C19.4269 16.7325 19.945 16.2137 20.5853 16.2137H27.2232C26.74 14.9427 26.4921 13.5926 26.4935 12.2293L26.4935 12.2277C26.4965 11.6486 26.5419 11.0708 26.6292 10.4987H9.68634L9.51609 35.8149H25.8997C26.201 35.8065 26.4928 35.9221 26.7068 36.1355C26.9212 36.3493 27.0372 36.6414 27.0294 36.943V40.3238C27.0412 42.5866 28.8768 44.4161 31.1403 44.4202H31.1534C33.4063 44.4158 35.2307 42.588 35.2303 40.3347ZM28.8106 12.275C28.8102 17.2106 32.8114 21.2116 37.7467 21.2118C42.6806 21.2065 46.6787 17.2081 46.684 12.2745C46.6838 7.33919 42.6828 3.33802 37.7475 3.33802C32.8116 3.33802 28.8106 7.33907 28.8106 12.275ZM37.6317 8.09736C37.6108 8.09736 37.5903 8.09587 37.5697 8.09437C36.6547 8.16571 35.9596 8.94781 35.9954 9.86475C36.0317 10.7817 36.7858 11.5063 37.7034 11.5059C39.3573 11.5055 40.7456 12.7515 40.9234 14.3957C41.1015 16.0398 40.012 17.554 38.3967 17.9077V18.7107C38.3967 19.1331 38.0542 19.4756 37.6317 19.4756C37.2093 19.4756 36.8668 19.1331 36.8668 18.7107V17.8725C35.4512 17.492 34.4667 16.2097 34.4648 14.7441C34.4648 14.3217 34.8073 13.9792 35.2298 13.9792C35.6522 13.9792 35.9947 14.3217 35.9947 14.7441C35.9947 15.6876 36.7596 16.4529 37.7034 16.4529C38.6473 16.4529 39.4122 15.6876 39.4122 14.7441C39.4122 13.8003 38.6473 13.035 37.7034 13.035C36.078 13.035 34.7042 11.8301 34.4925 10.2185C34.2807 8.60681 35.2966 7.08779 36.8668 6.66798V5.8982C36.8668 5.47578 37.2093 5.13328 37.6317 5.13328C38.0542 5.13328 38.3967 5.47578 38.3967 5.8982V6.63325C39.8817 6.96043 40.9402 8.27589 40.942 9.7964C40.942 10.2188 40.5995 10.5613 40.1771 10.5613C39.7547 10.5613 39.4122 10.2188 39.4122 9.7964C39.4111 8.86676 38.6671 8.10856 37.7374 8.08952C37.7027 8.09437 37.6672 8.09736 37.6317 8.09736ZM13.227 24.0685C13.227 22.7612 14.3251 21.6979 15.6753 21.6979C17.0254 21.6979 18.1239 22.7612 18.1239 24.0685C18.1239 25.3757 17.0254 26.4391 15.6753 26.4391C14.3251 26.4391 13.227 25.3757 13.227 24.0685ZM14.7568 24.0685C14.7568 24.532 15.1684 24.9092 15.6753 24.9092C16.1817 24.9092 16.5941 24.532 16.5941 24.0685C16.5941 23.605 16.1817 23.2277 15.6753 23.2277C15.1688 23.2277 14.7568 23.6046 14.7568 24.0685ZM19.4268 24.0652C19.4268 24.7048 19.945 25.2235 20.5852 25.2235H30.7832C31.4229 25.2235 31.9416 24.7049 31.9416 24.0652C31.9416 23.4255 31.4229 22.9068 30.7832 22.9068H20.5852C19.945 22.9068 19.4268 23.4256 19.4268 24.0652ZM15.6753 15.0485C14.3251 15.0485 13.227 16.1123 13.227 17.4195C13.227 18.7267 14.3251 19.7901 15.6753 19.7901C17.0254 19.7901 18.1239 18.7267 18.1239 17.4195C18.1239 16.1123 17.0254 15.0485 15.6753 15.0485ZM15.6753 18.2602C15.1684 18.2602 14.7568 17.883 14.7568 17.4195C14.7568 16.956 15.1688 16.5784 15.6753 16.5784C16.1817 16.5784 16.5941 16.9556 16.5941 17.4195C16.5941 17.883 16.1817 18.2602 15.6753 18.2602ZM13.227 30.7171C13.227 29.4099 14.3251 28.3465 15.6753 28.3465C17.0254 28.3465 18.1239 29.4099 18.1239 30.7171C18.1239 32.0244 17.0254 33.0877 15.6753 33.0877C14.3251 33.0877 13.227 32.0244 13.227 30.7171ZM14.7568 30.7171C14.7568 31.181 15.1684 31.5579 15.6753 31.5579C16.1817 31.5579 16.5941 31.1807 16.5941 30.7171C16.5941 30.2536 16.1817 29.8764 15.6753 29.8764C15.1688 29.8764 14.7568 30.2536 14.7568 30.7171ZM30.7832 29.5999H20.5852C19.945 29.5999 19.4268 30.1187 19.4268 30.7583C19.4268 31.3978 19.945 31.9166 20.5852 31.9166H30.7832C31.4229 31.9166 31.9416 31.398 31.9416 30.7583C31.9416 30.1185 31.4229 29.5999 30.7832 29.5999Z" fill="#0075FF"/>
<path fill-rule="evenodd" clip-rule="evenodd" d="M7.19935 35.8149L7.37749 9.37206C7.38182 8.76208 7.8736 8.18199 8.53584 8.18199H27.2498C28.879 4.05412 32.9666 1 37.7471 1C43.9536 1 49 6.05866 49 12.2637C49 18.4692 43.9513 23.5282 37.7452 23.5282C37.6795 23.5282 37.6132 23.5276 37.5471 23.5264V40.3354C37.5471 43.8669 34.687 46.7314 31.1555 46.737L6.73693 46.737L6.90162 46.7376C3.66982 46.4026 1.00997 43.633 1 40.3437L1 40.3425V36.9374C1 36.2596 1.57809 35.8149 2.17854 35.8149H7.19935ZM26.2011 44.4202C25.2446 43.2761 24.7137 41.8277 24.7126 40.3241L24.7126 38.1316H3.31673V40.3338C3.32742 42.5918 5.15924 44.4172 7.417 44.4202H26.2011ZM35.2303 40.3347V23.245C32.4448 22.6015 30.0088 20.915 28.4266 18.5304H20.5853C19.945 18.5304 19.4269 18.0116 19.4269 17.372C19.4269 16.7325 19.945 16.2137 20.5853 16.2137H27.2232C26.74 14.9427 26.4921 13.5926 26.4935 12.2293L26.4935 12.2277C26.4965 11.6486 26.5419 11.0708 26.6292 10.4987H9.68634L9.51609 35.8149H25.8997C26.201 35.8065 26.4928 35.9221 26.7068 36.1355C26.9212 36.3493 27.0372 36.6414 27.0294 36.943V40.3238C27.0412 42.5866 28.8768 44.4161 31.1403 44.4202H31.1534C33.4063 44.4158 35.2307 42.588 35.2303 40.3347ZM28.8106 12.275C28.8102 17.2106 32.8114 21.2116 37.7467 21.2118C42.6806 21.2065 46.6787 17.2081 46.684 12.2745C46.6838 7.33919 42.6828 3.33802 37.7475 3.33802C32.8116 3.33802 28.8106 7.33907 28.8106 12.275ZM37.6317 8.09736C37.6108 8.09736 37.5903 8.09587 37.5697 8.09437C36.6547 8.16571 35.9596 8.94781 35.9954 9.86475C36.0317 10.7817 36.7858 11.5063 37.7034 11.5059C39.3573 11.5055 40.7456 12.7515 40.9234 14.3957C41.1015 16.0398 40.012 17.554 38.3967 17.9077V18.7107C38.3967 19.1331 38.0542 19.4756 37.6317 19.4756C37.2093 19.4756 36.8668 19.1331 36.8668 18.7107V17.8725C35.4512 17.492 34.4667 16.2097 34.4648 14.7441C34.4648 14.3217 34.8073 13.9792 35.2298 13.9792C35.6522 13.9792 35.9947 14.3217 35.9947 14.7441C35.9947 15.6876 36.7596 16.4529 37.7034 16.4529C38.6473 16.4529 39.4122 15.6876 39.4122 14.7441C39.4122 13.8003 38.6473 13.035 37.7034 13.035C36.078 13.035 34.7042 11.8301 34.4925 10.2185C34.2807 8.60681 35.2966 7.08779 36.8668 6.66798V5.8982C36.8668 5.47578 37.2093 5.13328 37.6317 5.13328C38.0542 5.13328 38.3967 5.47578 38.3967 5.8982V6.63325C39.8817 6.96043 40.9402 8.27589 40.942 9.7964C40.942 10.2188 40.5995 10.5613 40.1771 10.5613C39.7547 10.5613 39.4122 10.2188 39.4122 9.7964C39.4111 8.86676 38.6671 8.10856 37.7374 8.08952C37.7027 8.09437 37.6672 8.09736 37.6317 8.09736ZM13.227 24.0685C13.227 22.7612 14.3251 21.6979 15.6753 21.6979C17.0254 21.6979 18.1239 22.7612 18.1239 24.0685C18.1239 25.3757 17.0254 26.4391 15.6753 26.4391C14.3251 26.4391 13.227 25.3757 13.227 24.0685ZM14.7568 24.0685C14.7568 24.532 15.1684 24.9092 15.6753 24.9092C16.1817 24.9092 16.5941 24.532 16.5941 24.0685C16.5941 23.605 16.1817 23.2277 15.6753 23.2277C15.1688 23.2277 14.7568 23.6046 14.7568 24.0685ZM19.4268 24.0652C19.4268 24.7048 19.945 25.2235 20.5852 25.2235H30.7832C31.4229 25.2235 31.9416 24.7049 31.9416 24.0652C31.9416 23.4255 31.4229 22.9068 30.7832 22.9068H20.5852C19.945 22.9068 19.4268 23.4256 19.4268 24.0652ZM15.6753 15.0485C14.3251 15.0485 13.227 16.1123 13.227 17.4195C13.227 18.7267 14.3251 19.7901 15.6753 19.7901C17.0254 19.7901 18.1239 18.7267 18.1239 17.4195C18.1239 16.1123 17.0254 15.0485 15.6753 15.0485ZM15.6753 18.2602C15.1684 18.2602 14.7568 17.883 14.7568 17.4195C14.7568 16.956 15.1688 16.5784 15.6753 16.5784C16.1817 16.5784 16.5941 16.9556 16.5941 17.4195C16.5941 17.883 16.1817 18.2602 15.6753 18.2602ZM13.227 30.7171C13.227 29.4099 14.3251 28.3465 15.6753 28.3465C17.0254 28.3465 18.1239 29.4099 18.1239 30.7171C18.1239 32.0244 17.0254 33.0877 15.6753 33.0877C14.3251 33.0877 13.227 32.0244 13.227 30.7171ZM14.7568 30.7171C14.7568 31.181 15.1684 31.5579 15.6753 31.5579C16.1817 31.5579 16.5941 31.1807 16.5941 30.7171C16.5941 30.2536 16.1817 29.8764 15.6753 29.8764C15.1688 29.8764 14.7568 30.2536 14.7568 30.7171ZM30.7832 29.5999H20.5852C19.945 29.5999 19.4268 30.1187 19.4268 30.7583C19.4268 31.3978 19.945 31.9166 20.5852 31.9166H30.7832C31.4229 31.9166 31.9416 31.398 31.9416 30.7583C31.9416 30.1185 31.4229 29.5999 30.7832 29.5999Z" stroke="#0075FF" stroke-width="0.4" mask="url(#path-1-outside-1)"/>
</svg>
